<?xml version="1.0" encoding="UTF-8"?><svg id="Layer_1" xmlns="http://www.w3.org/2000/svg" viewBox="0 0 198.41 40.91"><path id="Union_17" d="M9.87,37.83c-.2-.03-.37-.16-.46-.34-.16-.24-.2-.53-.11-.8l.23-.57-.11-1.72c-.23,.11-.46,.23-1.03,.46-.46,.11-.92,.34-1.38,.46-.69,.11-1.26,.23-1.95,.34h-1.15c-.47-.02-.93-.1-1.38-.23-.51-.17-.98-.45-1.38-.8-.47-.33-.79-.82-.92-1.37-.2-.51-.28-1.06-.23-1.6,.03-.5,.11-1,.23-1.49,.23-1.05,.62-2.05,1.15-2.98,1.02-1.75,2.25-3.37,3.67-4.82,1.17-1.2,2.53-2.21,4.01-2.98,1.02-.59,2.15-.94,3.32-1.03h.23c-.53-.9-.95-1.86-1.26-2.87-.45-1.24-.24-2.63,.57-3.67,1.22-1.56,3.07-2.48,5.04-2.52h.34c3.08-.14,5.7,2.24,5.84,5.32,0,.06,0,.12,0,.18,.12,1.92-.74,3.78-2.29,4.93-.98,.68-2.13,1.08-3.32,1.15h-.34c-1.49,.04-2.92-.59-3.9-1.72-.27-.01-.55,.03-.8,.11-1,.25-1.97,.64-2.87,1.15-1.35,.78-2.58,1.74-3.67,2.86-1.34,1.3-2.46,2.81-3.32,4.47-.42,.84-.77,1.73-1.03,2.63-.26,.78-.3,1.61-.11,2.41,.08,.3,.24,.58,.46,.8,.25,.18,.52,.33,.8,.46,.48,.15,.98,.23,1.49,.23h.46c.58,0,1.16-.08,1.72-.23,.39,0,.78-.09,1.15-.23l.34-.11c.69-.11,.92-.23,1.03-.23v-1.26c-.23,0-.34,.11-.57,.11-.37,.11-.76,.19-1.15,.23-.34,0-.46-.23-.46-.34,0-.34,.11-.46,1.26-.92l2.87-1.15,.8-.34,.46-.46,.23-.23c-.25-.22-.52-.41-.8-.57l-.46-.23-.23-.11c-.23,0-.34-.11-.57-.11-.3-.09-.61-.13-.92-.11-.19,.03-.38,.07-.57,.11h-.23l-.34-.23c-.23,.11-.34,.34-.57,.46l-.8,.57-.8,.8-.23,.34-.34,.69v.57c.12,.13,.2,.29,.23,.46l.34,.46v.11c.06,0,.11,.05,.11,.11h0c0,.12,.11,.12,.11,.23,.11,.19,.06,.44-.11,.57h-.22c-.11,0-.34-.23-.34-.23l-.11-.11h-.12l-.11-.11-.46-.46v-.11l-.46-.92v-.92q.11-.11,.11-.23c.11-.23,.23-.57,.34-.8l.34-.46c.01-.09,.05-.17,.11-.23l.46-.46,.57-.46c0-.06,.05-.11,.11-.11h0l.69-.46c.54-.46,1.31-.55,1.95-.23v.11c.06-.06,.14-.1,.23-.11v-1.95l.11-.11v-.11l.23-.11c-.22-.06-.42-.18-.57-.34v-.34c.11-.34,.34-.23,.8-.23,.39,0,.77,.03,1.15,.11l2.29,.23h1.38l2.18-.11h.23c.31,.1,.62,.21,.92,.34l.57,.23c0,.06,.05,.11,.11,.11h0c1.26,.8,1.61,1.03,1.49,1.38l.11-.23c0-.23,.34-.34,1.03-.8l.8-.46c.23-.11,.34-.23,.57-.23s.46-.11,.69-.11h.23c.57-.11,1.15-.23,1.83-.34h.34c.46-.11,1.03-.11,1.49-.23l.57-.11c.34,0,.69-.11,.92-.11h.11q.11-.11,.23-.11h.8c.29-.14,.6-.22,.92-.23l.34,.23c.11,.23,0,.34-.11,.46l.34,.23v.23l.23,.11,.34,5.85c.33,.11,.64,.26,.92,.46,.64,.37,1.19,.88,1.61,1.49,.26,.35,.45,.73,.57,1.15,.13,.21,.21,.44,.23,.69v.92l-.11,.34c-.11,.11-.11,.23-.23,.34h.46c.46-.11,1.03-.11,1.83-.23,.8-.23,1.61-.34,2.29-.57,.87-.31,1.71-.7,2.52-1.15,.87-.56,1.64-1.26,2.29-2.06,.74-.87,1.28-1.89,1.61-2.98,.42-1.18,.62-2.42,.57-3.67-.04-2.42-.59-4.8-1.61-6.99-.86-1.79-2.07-3.38-3.55-4.7-.59-.5-1.25-.92-1.95-1.26-.51-.26-1.05-.45-1.61-.57-.34,0-.69-.11-.92-.11-.43,1.05-1.1,1.99-1.95,2.75-1.35,1.06-2.99,1.66-4.7,1.72h-.34c-3.67,0-6.19-2.41-7.57-7.45-.52-1.73-.18-3.61,.92-5.04C24.83,1.28,27.12,.11,29.59,0h.46c4.08-.1,7.47,3.14,7.56,7.22,0,.08,0,.16,0,.23,.1,.89,.02,1.78-.23,2.64h.8c.67,.04,1.33,.2,1.95,.46,.84,.26,1.62,.69,2.29,1.26,1.73,1.4,3.14,3.16,4.13,5.16,.6,1.13,1.06,2.32,1.38,3.55,.35,1.31,.54,2.66,.57,4.01,.05,1.4-.14,2.79-.57,4.12-.35,1.3-.98,2.51-1.83,3.55-.72,1-1.66,1.83-2.75,2.41-.94,.5-1.94,.88-2.98,1.15-.83,.22-1.67,.37-2.52,.46-.45,.1-.91,.13-1.38,.11h-.57c-.46,0-.8-.11-1.15-.11-.31,.34-.66,.64-1.03,.92-.32,.2-.67,.36-1.03,.46-.29,.1-.61,.14-.92,.11h-.11c-.69-.03-1.36-.23-1.95-.57l-.34-.11c0,.11-.11,.11-.34,.11-1.31-.12-2.61-.31-3.9-.57-1.38-.34-2.64-.57-3.32-.8l-.23,.23-1.15,.11-.23-.11h-.23l-2.18,.34c-1.38,.23-3.21,.46-5.16,.8-.46,.11-1.03,.23-1.49,.34-.09,.09-.22,.13-.34,.11h-.11l-.23-.34,.11,.34-.23,.11c-.09,.09-.22,.13-.34,.11h-.11Zm15.71-3.89c.63,.23,1.24,.5,1.83,.8l2.64,1.26c.43,.22,.9,.34,1.38,.34,.48,.05,.97-.07,1.38-.34,.36-.25,.67-.56,.92-.92,.11-.23,.23-.34,.34-.57,.06-.06,.1-.14,.11-.23l.11-.23v-.11c.06,0,.11-.05,.11-.11h0v-.12c0-.16-.03-.32-.11-.46-.11-.33-.26-.64-.46-.92-.26-.52-.65-.96-1.15-1.27-.32-.23-.67-.42-1.03-.57h-.23c-.23,.02-.44-.15-.46-.38,0-.03,0-.05,0-.08,0-.09,.05-.17,.11-.23l-.34-5.16-10.09,2.3,.8,7.91c1.2,.08,2.39,.28,3.55,.57,.46,.11,1.03,.23,1.49,.34-.57-.34-1.15-.69-1.49-.92-.57-.46-.69-.57-.69-.69l.11-.34c.07-.08,.18-.13,.29-.12,.29,.04,.58,.12,.86,.24Zm-15.71-7.34h.57c.24-.02,.47,.02,.69,.11,.11,0,.23,.11,.34,.11l.46,.23,.23,.11c.41,.19,.79,.42,1.15,.69l.34,.34c.11,0,.23,.11,.23,.34v.46c0,.11-.11,.11-.11,.23s-.11,.23-.23,.34l-.34,.34c-.29,.2-.56,.43-.8,.69l-.92,.69-.92,.34c-.23,.11-.46,.11-.69,.23,.19,.75,.3,1.52,.34,2.29,0,.34,.11,.69,.11,1.15l.11,.69v.23h.11c.46-.11,1.03-.23,1.61-.34,1.83-.23,3.78-.46,5.73-.69,.57-.09,1.14-.13,1.72-.11l-.92-8.03-8.83-1.49v1.03Zm8.83-.57l-.69-.34h-.11c0,.11-.11,0-.11,0l-.8-.34c-.11-.11-.34-.11-.46-.23h-.8c-.41,.1-.84,.14-1.26,.11l4.24,.8Zm-5.39-10.77c.34,3.21,1.49,4.36,4.12,4.36,.99,.06,1.98-.13,2.87-.57,1.03-.69,1.15-1.83,.69-4.12,0-.46-.92-4.36-3.78-4.36h-.23c-2.86,.45-4.01,1.83-3.66,4.7Zm11.69-7.45c.46,4.47,1.83,6.19,5.39,6.19h.11c1.95,0,3.21-.34,4.01-1.03,1.03-.92,1.26-2.64,.69-5.5-.11-.69-1.26-6.19-5.04-6.19h-.34c-3.78,.57-5.28,2.52-4.82,6.53Zm1.03,26.02c-.4,.06-.8-.02-1.15-.23l-.11-.34c0-.34,.34-.34,.8-.46,.11,0,.23-.11,.46-.11,.34-.11,1.26-.23,2.41-.57,.82-.17,1.62-.4,2.41-.69,.34-.11,.46-.23,.57-.23l.11-.11c.11,0,.23-.11,.34-.11h.11c.23,0,.34,.23,.34,.46-.11,.23-.11,.34-.23,.46-.23,.11-.46,.34-.8,.57-.76,.41-1.57,.72-2.41,.92-.86,.25-1.74,.41-2.64,.46h-.23Z" fill="#0675c1"/><path d="M58.65,35.25h1.32c-.61,1.61-2.23,2.63-3.85,2.52-2.22,0-4.15-1.72-4.15-4.04v-.31c-.09-2.23,1.73-4.15,3.94-4.25h.2c1.73-.09,3.24,.92,3.85,2.53h-1.32c-.41-1.01-1.51-1.61-2.53-1.61-1.72,0-3.03,1.31-3.03,3.03v.3c-.1,1.72,1.11,3.14,2.74,3.34h.3c1.11,.1,2.12-.5,2.53-1.51Z" fill="#0675c1"/><path d="M64.42,31.01c-1.82,0-3.24,1.51-3.24,3.33,0,.1,0,.2-.1,.31,0,1.82,1.52,3.14,3.24,3.14h.31c1.82-.1,3.24-1.61,3.14-3.44v-.09c0-1.83-1.51-3.24-3.34-3.24Zm2.23,3.53c0,1.32-1.01,2.23-2.23,2.23h-.3c-1.11-.2-2.02-1.21-1.83-2.43v-.4c0-1.22,1.01-2.12,2.23-2.12h.2c1.22,.1,2.02,1.21,1.92,2.43v.3Z" fill="#0675c1"/><path d="M75.24,33.43v4.25h-1.11v-3.74c0-1.32-.71-2.02-1.82-2.02s-1.92,.71-1.92,2.12v3.64h-1.12v-6.58h1.12v.92c.5-.71,1.31-1.11,2.12-1.01,1.42-.1,2.63,1.01,2.74,2.42Z" fill="#0675c1"/><path d="M82.82,33.43v4.25h-1.11v-3.74c0-1.32-.71-2.02-1.83-2.02s-1.92,.71-1.92,2.12v3.64h-1.11v-6.58h1.11v.92c.51-.71,1.32-1.11,2.12-1.01,1.42-.1,2.63,1.01,2.73,2.42Z" fill="#0675c1"/><path d="M90.61,33.83c-.1-1.61-1.52-2.93-3.14-2.83h-.4c-1.73,.09-2.94,1.61-2.84,3.33v.41c0,1.72,1.52,3.14,3.24,3.03,1.42,.1,2.63-.81,3.03-2.12h-1.22c-.2,.81-1.01,1.32-1.82,1.22h-.1c-1.11,0-2.02-.91-2.02-2.02h5.26v-1.01Zm-5.26,.1c0-1.11,.91-2.02,2.12-2.02h.2c1.01,.1,1.82,.91,1.82,2.02h-4.15Z" fill="#0675c1"/><path d="M97.89,35.55c-.31,1.42-1.62,2.33-3.03,2.23-1.73,0-3.14-1.32-3.24-3.03v-.41c-.1-1.72,1.11-3.24,2.83-3.33h.31c1.42-.1,2.73,.81,3.03,2.22h-1.21c-.2-.81-1.01-1.31-1.82-1.31-1.22,0-2.12,.81-2.12,2.42s.91,2.53,2.12,2.53c.81,.1,1.61-.51,1.82-1.32h1.32Z" fill="#0675c1"/><polygon points="104.87 36.16 103.55 39.39 102.74 39.39 103.65 36.16 104.87 36.16" fill="#0675c1"/><path d="M100.72,32.02v3.84c0,.6,.2,.91,.91,.91h.82v.91h-1.01c-1.21,0-1.83-.5-1.83-1.82v-3.84h-.81v-.92h.81v-1.61h1.11v1.61h1.73v.92h-1.73Z" fill="#0675c1"/><polygon points="113.26 36.77 113.26 37.68 109.22 37.68 109.22 29.28 110.33 29.28 110.33 36.77 113.26 36.77" fill="#0675c1"/><path d="M120.44,33.83c-.1-1.61-1.51-2.93-3.13-2.83h-.4c-1.72,.09-2.94,1.61-2.84,3.33v.41c0,1.72,1.52,3.14,3.24,3.03,1.42,.1,2.63-.81,3.03-2.12h-1.21c-.19,.81-1.01,1.32-1.82,1.22h-.1c-1.11,0-2.02-.91-2.02-2.02h5.26v-1.01Zm-5.26,.1c0-1.11,.91-2.02,2.12-2.02h.2c1.01,.1,1.82,.91,1.82,2.02h-4.15Z" fill="#0675c1"/><path d="M127.02,31.1v1.21c-.51-.81-1.42-1.31-2.43-1.31h-.31c-1.72,.09-2.93,1.61-2.83,3.33v.2c0,1.82,1.42,3.24,3.13,3.24,1.01,.1,1.92-.51,2.43-1.32v1.22h1.11v-6.58h-1.11Zm0,3.65c-.1,1.21-1.21,2.12-2.43,2.02-1.21-.1-2.12-1.21-2.02-2.43v-.2c0-1.21,1.01-2.23,2.23-2.23h.2c1.21,.1,2.13,1.21,2.03,2.42v.41Z" fill="#0675c1"/><path d="M133.19,31.01v1.11h-.31c-1.01,0-1.82,.5-1.82,2.02v3.53h-1.11v-6.58h1.11v1.12c.4-.82,1.22-1.22,2.12-1.22Z" fill="#0675c1"/><path d="M140.37,33.43v4.25h-1.11v-3.74c0-1.32-.71-2.02-1.83-2.02s-1.92,.71-1.92,2.12v3.64h-1.1v-6.58h1.1v.92c.51-.71,1.32-1.11,2.12-1.01,1.42-.1,2.63,1.01,2.74,2.42Z" fill="#0675c1"/><path d="M151.18,35.65c.2-.2,.41-.4,.51-.71l1.01-1.72h-1.22l-.81,1.42c-.1,.1-.1,.2-.2,.31l-2.53-2.53c-.6-.6-.91-1.01-.91-1.51v-.1c.1-.61,.61-1.01,1.11-.91h.2c.51,0,.91,.5,.81,1.01h1.11v-.31c-.1-1.01-1.01-1.72-2.02-1.61h-.2c-1.11,0-2.02,.81-2.02,1.92,0,.71,.31,1.32,.71,1.72-1.11,.41-1.93,1.42-1.93,2.63,0,1.51,1.21,2.52,2.94,2.42,1,.1,2.12-.41,2.83-1.22l1.11,1.11h1.41l-1.92-1.92Zm-3.43,1.22h-.1c-.91,0-1.73-.71-1.73-1.61s.51-1.52,1.52-1.83l2.43,2.43c-.51,.6-1.32,1.01-2.12,1.01Z" fill="#0675c1"/><polygon points="158.36 30.19 158.36 33.03 161.39 33.03 161.39 33.94 158.36 33.94 158.36 36.77 161.8 36.77 161.8 37.68 157.35 37.68 157.35 29.28 161.8 29.28 161.8 30.19 158.36 30.19" fill="#0675c1"/><polygon points="166.05 34.34 168.18 37.68 166.96 37.68 165.44 35.25 163.93 37.68 162.81 37.68 164.94 34.44 162.81 31.1 164.03 31.1 165.54 33.53 167.06 31.1 168.18 31.1 166.05 34.34" fill="#0675c1"/><path d="M175.96,34.44v-.3c0-1.72-1.42-3.14-3.13-3.14-1.01,0-1.92,.5-2.42,1.31v-1.21h-1.12v9.81h1.12v-4.35c.5,.82,1.41,1.32,2.42,1.32h.2c1.82-.2,3.03-1.72,2.93-3.44Zm-1.21-.1v.41c-.1,1.22-1.21,2.12-2.42,2.02-1.22-.1-2.12-1.22-2.02-2.43v-.2c0-1.22,1.01-2.23,2.22-2.23h.2c1.21,.1,2.12,1.21,2.02,2.42Z" fill="#0675c1"/><rect x="177.38" y="28.78" width="1.11" height="8.9" fill="#0675c1"/><path d="M183.24,31.01c-1.82,0-3.34,1.51-3.34,3.33v.31c0,1.82,1.52,3.24,3.24,3.14h.31c1.76-.09,3.13-1.51,3.13-3.25v-.19c0-1.82-1.52-3.33-3.34-3.33Zm2.12,3.53c0,1.32-1.01,2.23-2.23,2.23h-.31c-1.11-.2-2.01-1.21-1.82-2.43v-.4c0-1.22,1.01-2.12,2.23-2.12h.2c1.21,.1,2.02,1.21,1.92,2.43v.3Z" fill="#0675c1"/><path d="M191.23,31.01v1.11h-.3c-1.01,0-1.83,.5-1.83,2.02v3.53h-1.11v-6.58h1.11v1.12c.41-.82,1.21-1.22,2.12-1.22Z" fill="#0675c1"/><path d="M198.41,33.83c-.11-1.61-1.52-2.93-3.14-2.83h-.41c-1.72,.09-2.93,1.61-2.83,3.33v.41c0,1.72,1.51,3.14,3.24,3.03,1.41,.1,2.63-.81,3.03-2.12h-1.21c-.2,.81-1.02,1.32-1.82,1.22h-.1c-1.12,0-2.02-.91-2.02-2.02h5.26v-1.01Zm-5.26,.1c0-1.22,1.01-2.02,2.12-2.02h.2c1.01,.1,1.82,.91,1.82,2.02h-4.14Z" fill="#0675c1"/><path d="M198.41,18.77c0,3.38-2.64,5.07-5.5,5.07-2.43,.11-4.86-1.16-6.24-3.28l1.79-1.38c.85,1.7,2.65,2.65,4.44,2.65,1.79,.11,3.38-1.16,3.49-2.96,0-2.22-2.3-2.57-4.6-3.12-2.3-.56-4.6-1.32-4.6-4.4s2.75-4.65,5.29-4.65,4.43,.95,5.39,3.06l-1.8,1.06c-.63-1.47-2.01-2.33-3.59-2.33-1.48,0-3.29,.95-3.29,2.65,0,4.34,9.2,.95,9.2,7.61Z" fill="#0675c1"/><path d="M186.15,6.93l-.21,2.11c-.21-.11-.53-.11-.75-.11-3.49,0-5.07,2.53-5.07,5.7v8.88l-2.11-.11V11.79c0-1.16-.11-3.7-.11-4.55h2.01c0,1.16,.11,2.54,.11,2.86,.84-2.01,2.75-3.28,4.98-3.28,.31,0,.74,.11,1.16,.11Z" fill="#0675c1"/><path d="M166.17,6.82c-4.87,0-8.25,3.59-8.25,8.56s3.5,8.56,8.25,8.56,8.24-3.6,8.24-8.56-3.59-8.56-8.24-8.56Zm-.11,15.22c-3.7,0-6.13-3.06-6.13-6.65s2.43-6.66,6.13-6.66,6.13,3.06,6.13,6.66-2.43,6.65-6.13,6.65Z" fill="#0675c1"/><path d="M156.01,23.21c-.84,.31-1.69,.52-2.64,.63-2.86,.11-3.91-1.69-3.91-4.12V9.14h-3.39v-2h3.39V2.49h2.01V7.14h4.44v1.9h-4.44v10.57c-.11,1.16,.63,2.11,1.79,2.33h.32c.84,0,1.58-.21,2.33-.64l.1,1.91Z" fill="#0675c1"/><path d="M143.33,23.42h-2.01c0-1.15-.11-2.53-.11-2.85h-.11c-.95,2.01-3.07,3.28-5.29,3.28-4.65,0-5.82-3.49-5.82-6.98V7.14h2.02v9.51c0,2.64,.74,5.18,3.8,5.18s5.29-2.22,5.29-6.66V7.14h2.01v11.74c0,.58,.05,1.5,.11,2.39,.05,.89,.11,1.73,.11,2.15Z" fill="#0675c1"/><path d="M127.58,23.21c-.85,.31-1.7,.52-2.65,.63-2.85,.11-3.91-1.69-3.91-4.12V9.14h-3.38v-2h3.38V2.49h2.01V7.14h4.44v1.9h-4.44v10.57c-.11,1.16,.64,2.11,1.79,2.33h.32c.84,0,1.58-.21,2.33-.64l.11,1.91Z" fill="#0675c1"/><path d="M115.95,14.43c0-3.81-2.54-7.61-7.2-7.61s-7.72,3.7-7.72,8.56,3.07,8.56,7.83,8.67c2.74,.11,5.29-1.16,6.77-3.49l-1.58-1.38c-1.07,1.79-3.07,2.85-5.19,2.85-4.75,0-5.92-4.33-5.92-6.13h13.01v-1.47Zm-12.9-.53c0-.84,1.26-5.29,5.7-5.29,2.85,0,5.29,2.33,5.29,5.29h-11Z" fill="#0675c1"/><path d="M99.66,6.93l-.21,2.11c-.21-.11-.53-.11-.75-.11-3.48,0-5.07,2.53-5.07,5.7v8.88l-2.01-.11V11.79c0-.59-.05-1.51-.11-2.39-.05-.89-.11-1.73-.11-2.16h2.02c0,1.16,.11,2.54,.11,2.86,.84-2.01,2.74-3.28,4.97-3.28,.31,0,.63,.11,1.16,.11Z" fill="#0675c1"/><path d="M86.8,20.08c-.09-1.14-.14-2.27-.14-3.43v-4.02c0-4.12-2.43-5.92-6.14-5.92-2.21,0-4.34,.84-5.92,2.33l1.27,1.37c1.26-1.16,2.96-1.79,4.65-1.79,2.43,0,4.34,1.27,4.34,4.02v.95h-2.33c-3.07,0-8.56,.43-8.56,5.4,0,3.48,2.85,4.97,5.5,4.97s4.33-1.06,5.39-3.06h.2c0,.84,.11,1.79,.21,2.64h1.9c-.16-1.16-.28-2.29-.38-3.44Zm-1.84-3.64c0,2.64-1.06,5.5-5.39,5.5-1.69,0-3.48-1.06-3.48-3.06,0-2.75,3.28-3.6,6.65-3.49h2.22v1.06Z" fill="#0675c1"/><path d="M68.99,18.69l1.83,1.71c-2.1,2.3-4.79,3.56-7.61,3.56-6.51,0-11.24-4.91-11.24-11.68S56.59,.59,63.21,.59c2.86,0,5.67,1.29,7.75,3.55l-1.96,1.59c-1.41-1.76-3.5-2.85-5.79-2.99-5.01,0-8.79,4.1-8.79,9.53s3.7,9.53,8.81,9.53c2.3-.14,4.39-1.28,5.76-3.12Z" fill="#0675c1"/></svg>